<svg width="156" height="99" viewBox="0 0 156 99" fill="none" xmlns="http://www.w3.org/2000/svg">
<g clip-path="url(#clip0_1522_2957)">
<path d="M95.6096 0.73999H60.3908C52.8286 0.73999 46.6982 6.85892 46.6982 14.407V49.56C46.6982 57.1081 52.8286 63.227 60.3908 63.227H95.6096C103.172 63.227 109.302 57.1081 109.302 49.56V14.407C109.302 6.85892 103.172 0.73999 95.6096 0.73999Z" fill="#FBE700"/>
<path d="M68.1022 28.1005C68.3517 28.1005 68.538 28.0385 68.7243 27.9765L74.949 24.621C75.5711 24.3101 75.7584 23.5022 75.4469 22.8813C75.1353 22.2604 74.3259 22.0734 73.7039 22.3844L67.5413 25.7398C66.9192 25.9258 66.6077 26.5477 66.7319 27.1686C66.9182 27.7896 67.5413 28.2245 68.1012 28.1005H68.1022ZM77.5645 33.0088C77.7508 33.0088 78.0002 32.9468 78.1866 32.8228L88.0836 27.4796C88.4572 27.2936 88.7057 26.8587 88.7057 26.4237C88.7057 25.9268 88.5193 25.4919 88.1457 25.3049C87.7099 25.056 87.2742 25.056 86.8384 25.2429L76.9414 30.5861C76.3815 30.8351 76.0078 31.456 76.1941 32.0769C76.3184 32.6978 76.9414 33.0708 77.5635 33.0088H77.5645ZM55.5907 26.5467L72.7091 17.3511C73.7049 16.9162 74.8879 16.9162 75.9457 17.3511L84.5365 21.9484L86.591 20.8296C87.6488 20.3947 88.8318 20.3947 89.8276 20.8296L100.472 26.5458L100.596 26.6078L100.472 26.6697L79.6811 37.8531C78.6233 38.35 77.4403 38.35 76.4445 37.8531L55.5917 26.5448L55.5907 26.5467ZM79.619 46.6158C78.6233 47.0507 77.4403 47.0507 76.4445 46.6158L55.3423 35.1215V29.4053L75.1994 40.0917C76.9424 40.9616 79.059 40.9616 80.802 40.0917L100.721 29.4053V34.9975L79.619 46.6158Z" fill="#0505E5"/>
<path d="M18.1328 86.7904C17.6162 86.4519 17.0227 86.2098 16.3572 86.0672C16.7023 85.8645 17.0207 85.6244 17.3076 85.3508C17.8528 84.8293 18.2728 84.2339 18.5557 83.5815C18.8386 82.9281 18.9826 82.2659 18.9826 81.6135C18.9826 80.657 18.6829 79.7655 18.0933 78.9616C17.5077 78.1645 16.5722 77.517 15.3093 77.0378C14.075 76.5684 12.4838 76.3313 10.5801 76.3313C8.2811 76.3313 5.27325 76.5862 1.64037 77.091L1.33278 77.1333L1.11294 79.7193L3.9384 80.3333V94.3221L1.23814 95.3445L0.942383 97.7533H10.9419C13.0428 97.7533 14.8242 97.4739 16.234 96.9219C17.6714 96.36 18.7558 95.5669 19.4548 94.5651C20.1567 93.5614 20.5116 92.4032 20.5116 91.124C20.5116 90.3102 20.3115 89.5073 19.9172 88.7388C19.5199 87.9643 18.9195 87.31 18.1308 86.7924L18.1328 86.7904ZM14.6231 93.1905C14.351 93.647 13.9754 93.9974 13.4756 94.2611C12.9758 94.5258 12.3783 94.6596 11.6991 94.6596H9.35568V88.1759H11.4516C12.19 88.1759 12.8377 88.3353 13.379 88.6482C13.9232 88.9651 14.3244 89.3764 14.6054 89.9068C14.8863 90.4391 15.0293 91.0246 15.0293 91.6475C15.0293 92.2192 14.8923 92.7378 14.6231 93.1895V93.1905ZM13.3671 84.2566C13.1571 84.6807 12.8328 85.0467 12.404 85.3469H9.35667V79.302C9.60018 79.2715 9.83383 79.2568 10.0537 79.2568C11.3501 79.2568 12.2926 79.5608 12.8555 80.1611C13.4332 80.7771 13.7132 81.5525 13.7132 82.5326C13.7132 83.2135 13.5968 83.7941 13.3671 84.2576V84.2566Z" fill="#0505E5"/>
<path d="M36.2261 94.1615C36.024 94.0444 35.8771 93.8781 35.7785 93.6518C35.6691 93.4018 35.6139 93.025 35.6139 92.5339V82.9516L34.766 82.0591L28.911 82.6869L28.4615 85.7432L30.7713 86.7292V92.7898C30.4716 93.0535 30.1729 93.2542 29.8791 93.3881C29.5597 93.5337 29.1604 93.6075 28.6912 93.6075C28.1756 93.6075 27.8039 93.4314 27.5555 93.0693C27.3652 92.7927 27.1384 92.1935 27.1384 90.9074V83.0077L26.2384 82.1329L20.5638 82.5088L20.0669 85.2365L22.2644 86.5757V92.9768C22.2644 94.808 22.6094 96.102 23.3202 96.9325C24.036 97.7689 25.1687 98.194 26.6849 98.194C27.658 98.194 28.5886 97.951 29.4493 97.4708C30.094 97.1116 30.6589 96.6314 31.1371 96.037C31.2475 96.6452 31.5304 97.1401 31.9829 97.5131C32.5567 97.9864 33.3375 98.2265 34.3037 98.2265C34.8863 98.2265 35.4571 98.1714 36.0013 98.0631C36.5415 97.9549 37.1183 97.7866 37.7157 97.5613L37.9346 97.4786L38.2698 94.8454L37.3559 94.5915C36.8521 94.4479 36.4715 94.3032 36.2261 94.1615Z" fill="#0505E5"/>
<path d="M58.6839 93.4669C58.6307 93.4984 58.5075 93.5673 58.3123 93.6716C58.1289 93.77 57.8893 93.8694 57.6005 93.9648C57.3294 94.0554 57.0523 94.1006 56.7773 94.1006C56.0073 94.1006 55.47 93.9393 55.1812 93.6204C54.8825 93.2908 54.7306 92.6935 54.7306 91.8463L54.7612 85.9254H59.1966L59.4154 82.8179H54.8125V79.2046H52.4435L52.3271 79.3709C51.7612 80.1817 51.1135 80.9571 50.4027 81.6774L49.8615 82.2255C49.4888 82.6024 48.9703 82.8189 48.4399 82.8189H44.3713V79.2056H42.0022L41.8859 79.3719C41.32 80.1827 40.6723 80.9581 39.9615 81.6784C39.2527 82.3967 38.5222 83.0137 37.7897 83.5116L37.6201 83.6268V85.8782H39.4765L39.4301 92.7958C39.4183 94.078 39.5692 95.1171 39.8777 95.8837C40.2031 96.6925 40.7167 97.28 41.4028 97.6293C42.0584 97.9619 42.9211 98.1312 43.9651 98.1312C45.1116 98.1312 46.1468 97.8832 47.04 97.3932C47.9272 96.9071 48.643 96.2881 49.1684 95.554L49.2749 95.4045L48.6824 93.2042L48.2408 93.4689C48.1875 93.5004 48.0643 93.5693 47.8691 93.6736C47.6857 93.772 47.4462 93.8714 47.1573 93.9668C46.8862 94.0573 46.6092 94.1026 46.3341 94.1026C45.5641 94.1026 45.0269 93.9412 44.738 93.6224C44.4393 93.2928 44.2875 92.6955 44.2875 91.8482L44.318 85.9225L48.6558 85.8772H49.9157L49.8694 92.7949C49.8576 94.077 50.0084 95.1162 50.317 95.8827C50.6423 96.6916 51.1559 97.279 51.8421 97.6283C52.4977 97.9609 53.3603 98.1302 54.4043 98.1302C55.5509 98.1302 56.586 97.8822 57.4792 97.3922C58.3665 96.9061 59.0822 96.2871 59.6077 95.5531L59.7142 95.4035L59.1217 93.2032L58.68 93.4679L58.6839 93.4669Z" fill="#0505E5"/>
<path d="M72.1598 93.5535C71.5506 93.8733 70.9551 94.0839 70.3912 94.1803C69.8076 94.2797 69.152 94.3309 68.4412 94.3309C67.3114 94.3309 66.4882 94.0052 65.9253 93.3361C65.4205 92.7368 65.109 91.9771 64.9986 91.0738L72.3087 90.9124L72.3747 90.6162C72.4438 90.3072 72.5137 89.8428 72.5877 89.1963C72.6616 88.5518 72.6971 88.1021 72.6971 87.8216C72.6971 86.6329 72.4891 85.5722 72.078 84.6718C71.659 83.7537 71.0547 83.0344 70.2818 82.5355C69.5079 82.0366 68.6009 81.7837 67.5864 81.7837C66.3334 81.7837 65.11 82.1488 63.9506 82.8681C62.7971 83.5844 61.8438 84.6009 61.1182 85.89C60.3917 87.181 60.0239 88.6698 60.0239 90.3181C60.0239 91.9663 60.3315 93.4285 60.9388 94.6172C61.552 95.8177 62.3939 96.7358 63.4419 97.3469C64.4849 97.954 65.664 98.262 66.9456 98.262C68.0478 98.262 69.1539 98.0721 70.2325 97.6982C71.3278 97.3184 72.2426 96.7555 72.9515 96.0244L73.0895 95.8827L72.633 93.3085L72.1628 93.5555L72.1598 93.5535ZM65.2233 86.9212C65.4008 86.3692 65.6295 85.9481 65.9036 85.6706C66.1481 85.4226 66.3965 85.3016 66.6637 85.3016C67.1586 85.3016 67.4928 85.4659 67.7185 85.8201C67.9729 86.2206 68.102 86.7825 68.102 87.493C68.102 87.6396 68.0942 87.8285 68.0784 88.0568C68.0734 88.1267 68.0685 88.1857 68.0636 88.2349L64.9345 88.5409C64.9769 87.9308 65.0745 87.3877 65.2243 86.9212H65.2233Z" fill="#0505E5"/>
<path d="M84.3527 81.8977C83.4349 81.8977 82.5752 82.2549 81.7964 82.9595C81.3498 83.3639 80.9574 83.8923 80.6242 84.5378L80.7928 82.9014L80.0258 82.1112L74.1777 82.7026L73.7508 85.3034L76.2973 86.3573V94.2678L73.8652 95.1426L73.5093 97.7374H84.6445L84.9038 94.7883L80.9909 93.9942V89.4933C81.1645 88.7455 81.4513 88.1295 81.8457 87.6631C82.6314 86.7332 83.6804 86.8434 84.9846 87.6739L85.2252 87.8274L85.4431 87.6444C85.9478 87.2222 86.3481 86.7597 86.633 86.2687C86.9297 85.756 87.0806 85.1686 87.0806 84.5221C87.0806 83.7841 86.8302 83.1572 86.3353 82.6564C85.8384 82.1545 85.1729 81.9007 84.3547 81.9007L84.3527 81.8977Z" fill="#0505E5"/>
<path d="M106.488 92.4347C105.707 93.0034 104.837 93.4767 103.902 93.8398C102.98 94.198 102.001 94.3801 100.991 94.3801C99.6097 94.3801 98.3823 94.0622 97.3413 93.4334C96.3042 92.8096 95.4829 91.8757 94.8993 90.6585C94.3078 89.4255 94.0081 87.9131 94.0081 86.1616C94.0081 84.656 94.2388 83.3561 94.6923 82.2983C95.1359 81.2641 95.7718 80.4739 96.5792 79.9495C97.3886 79.424 98.3528 79.1573 99.4441 79.1573C100.202 79.1573 100.92 79.2912 101.578 79.5568C102.185 79.8009 102.664 80.1256 103.002 80.5222L103.897 84.4061L106.71 84.7948L107.253 77.9667L107.086 77.8378C106.377 77.2916 105.375 76.8616 104.109 76.5605C102.866 76.2643 101.629 76.1147 100.431 76.1147C97.636 76.1147 95.2927 76.7101 93.4659 77.885C91.6391 79.0589 90.2934 80.5566 89.4663 82.3347C88.645 84.0971 88.229 85.9146 88.229 87.738C88.229 89.9008 88.6953 91.7901 89.6151 93.3547C90.5389 94.9262 91.851 96.1375 93.5142 96.9552C95.1625 97.7661 97.1027 98.1774 99.2814 98.1774C100.51 98.1774 101.702 98.0062 102.825 97.6687C103.945 97.3311 104.941 96.8942 105.789 96.3707C106.642 95.8433 107.32 95.2893 107.804 94.7255L107.966 94.5375L106.875 92.1542L106.491 92.4347H106.488Z" fill="#0505E5"/>
<path d="M134.245 79.8805L136.906 79.1405L137.219 76.5427H128.317L127.104 79.786L123.633 89.1992L120.558 80.0793L119.23 76.5427H110.3L110.032 79.1238L113.054 79.9474L112.025 94.1802L109.277 95.2085L108.919 97.7512H118.226L118.619 95.1269L116.027 94.2649L116.665 84.9266L120.949 97.5938L124.875 97.0585L129.325 84.5989L130.054 94.2157L127.84 95.2243L127.441 97.7512H137.939L138.204 95.1092L135.209 94.2413L134.245 79.8805Z" fill="#0505E5"/>
<path d="M154.121 88.1709C153.518 87.3227 152.786 86.625 151.946 86.0966C151.135 85.5869 150.064 85.0152 148.76 84.3972C147.812 83.9564 147.063 83.5785 146.537 83.2725C146.04 82.9842 145.619 82.6417 145.287 82.255C144.985 81.9027 144.838 81.515 144.838 81.0702C144.838 80.4198 145.012 79.9396 145.367 79.6031C145.728 79.2606 146.204 79.0934 146.819 79.0934C147.377 79.0934 147.938 79.241 148.487 79.5322C149.003 79.8058 149.381 80.1187 149.611 80.4611L150.175 83.3807L153.095 83.8521L153.377 80.4779C153.537 78.5472 153.559 78.1989 153.559 78.1133V77.9401L153.429 77.824C152.872 77.327 152.043 76.9177 150.965 76.6077C149.909 76.3037 148.891 76.1492 147.937 76.1492C146.587 76.1492 145.289 76.3991 144.079 76.8921C142.852 77.392 141.84 78.1516 141.071 79.1504C140.291 80.162 139.896 81.394 139.896 82.812C139.896 84.0361 140.199 85.0968 140.795 85.9628C141.376 86.8071 142.078 87.4929 142.882 88.0007C143.653 88.4878 144.678 89.0368 145.927 89.6332C146.792 90.0435 147.477 90.3948 147.963 90.6772C148.422 90.9439 148.81 91.2588 149.115 91.613C149.389 91.9318 149.523 92.2871 149.523 92.6984C149.523 93.1441 149.411 93.5151 149.178 93.8329C148.937 94.1626 148.625 94.4086 148.225 94.5847C147.816 94.7638 147.376 94.8553 146.917 94.8553C146.255 94.8553 145.613 94.7107 145.011 94.4253C144.447 94.1577 144.015 93.8221 143.726 93.4265L143.028 90.1694L140.043 89.7227L139.624 95.4379L139.706 95.552C140.252 96.3117 141.155 96.9424 142.388 97.4276C143.597 97.9028 144.982 98.1439 146.505 98.1439C147.775 98.1439 149.077 97.895 150.378 97.4039C151.695 96.907 152.81 96.1405 153.693 95.1279C154.597 94.0908 155.056 92.8086 155.056 91.3168C155.056 90.1016 154.741 89.0427 154.12 88.1689L154.121 88.1709Z" fill="#0505E5"/>
</g>
<defs>
<clipPath id="clip0_1522_2957">
<rect width="156" height="99" fill="white"/>
</clipPath>
</defs>
</svg>
